<?xml version="1.0" encoding="utf-8"?>
<!-- Generator: Adobe Illustrator 28.2.0, SVG Export Plug-In . SVG Version: 6.00 Build 0)  -->
<svg version="1.1" id="Layer_1" xmlns="http://www.w3.org/2000/svg" xmlns:xlink="http://www.w3.org/1999/xlink" x="0px" y="0px"
	 viewBox="0 0 576 512" style="enable-background:new 0 0 576 512;" xml:space="preserve">
<style type="text/css">
	.st0{fill:#FFFFFF;}
</style>
<path class="st0" d="M290.8,48.6l78.4,29.7L288,109.5l-81.2-31.2l78.4-29.7c1.8-0.7,3.8-0.7,5.7,0L290.8,48.6z M136,92.5v112.2
	c-1.3,0.4-2.6,0.8-3.9,1.3l-96,36.4C14.4,250.6,0,271.5,0,294.7v119.2c0,22.2,13.1,42.3,33.5,51.3l96,42.2c14.4,6.3,30.7,6.3,45.1,0
	L288,457.5l113.5,49.9c14.4,6.3,30.7,6.3,45.1,0l96-42.2c20.3-8.9,33.5-29.1,33.5-51.3V294.7c0-23.3-14.4-44.1-36.1-52.4l-96-36.4
	c-1.3-0.5-2.6-0.9-3.9-1.3V92.5c0-23.3-14.4-44.1-36.1-52.4L308,3.7c-12.8-4.8-26.9-4.8-39.7,0l-96,36.4
	C150.4,48.4,136,69.3,136,92.5z M392,210.6l-82.4,31.2v-89.2L392,121V210.6z M154.8,250.9l78.4,29.7L152,311.7l-81.2-31.1l78.4-29.7
	c1.8-0.7,3.8-0.7,5.7,0L154.8,250.9z M173.6,455.3V354.8l82.4-31.6v95.9L173.6,455.3L173.6,455.3z M421.2,250.9
	c1.8-0.7,3.8-0.7,5.7,0l78.4,29.7L424,311.7l-81.2-31.1L421.2,250.9L421.2,250.9z M523.2,421.2l-77.6,34.1V354.8l82.4-31.6v90.7
	C528,417.1,526.1,419.9,523.2,421.2z"/>
</svg>
